<svg width="300" height="300" xmlns="http://www.w3.org/2000/svg" viewBox="0 0 300 300"><path fill="#40596B" d="M262.3 60H41.8c-5.4 0-9.8 4.4-9.8 9.8v135.3h240.2V69.9c0-5.5-4.4-9.9-9.9-9.9z"/><path fill="#F2F2F2" d="M32 205.6v16.6c0 5.4 4.4 9.8 9.8 9.8h223c4.1 0 7.3-3.3 7.3-7.3v-19.2H32z"/><g fill="#CDD6E0"><circle cx="152.2" cy="218.7" r="5.2"/><path d="M199.3 251.5h-94.1l9-12.6 3.5-6.8h69l3.6 6.8z"/></g><path fill="#F2F2F2" d="M224.9 265.7H79.3v-12.8c0-.7.6-1.3 1.3-1.3h143c.7 0 1.3.6 1.3 1.3v12.8z"/><path fill="#656D78" d="M46.7 74.2h210.8v120.6H46.7z"/><path fill="#ACB3BA" d="M190.6 239.2h-76.8"/><path fill="#EBF0F3" d="M22.1 39l92.6-7L84 81.4z"/><path fill="#E1E6E9" d="M114.7 32L47.4 56.4 58.6 64z"/><path fill="#D5D6DB" d="M41.9 78.4l5.5-22L58.6 64z"/><path fill="#E1E6E9" d="M41.9 78.4L65.8 69l-7.2-5"/><path fill="#EBF0F3" d="M357.546 32.911l108-.421.514 131.7-108 .421z"/><g fill="#E1E6E9"><ellipse cx="361.7" cy="39.7" rx="1.9" ry="1.9"/><ellipse cx="369.7" cy="39.7" rx="1.9" ry="1.9"/><ellipse cx="377.8" cy="39.6" rx="1.9" ry="1.9"/><ellipse cx="385.8" cy="39.6" rx="1.9" ry="1.9"/><ellipse cx="393.8" cy="39.6" rx="1.9" ry="1.9"/><ellipse cx="401.9" cy="39.6" rx="1.9" ry="1.9"/><ellipse cx="409.9" cy="39.5" rx="1.9" ry="1.9"/><ellipse cx="417.9" cy="39.5" rx="1.9" ry="1.9"/><ellipse cx="425.9" cy="39.5" rx="1.9" ry="1.9"/><ellipse cx="434" cy="39.4" rx="1.9" ry="1.9"/><ellipse cx="442" cy="39.4" rx="1.9" ry="1.9"/><ellipse cx="450" cy="39.4" rx="1.9" ry="1.9"/><ellipse cx="458" cy="39.3" rx="1.9" ry="1.9"/></g><path d="M363.7 25.2c-2.1 0-3.6 3.3-3.6 7.7 0 2 .3 3.7.9 5 .6 1.5 1.5 2.5 2.5 2.6.1-.2.2-.5.2-.8v-.2c-.6-.1-1.1-.7-1.6-1.7-.5-1.2-.9-2.9-.9-4.9 0-3.9 1.3-6.6 2.5-6.6s2.6 2.7 2.6 6.6h1c0-4.4-1.6-7.7-3.6-7.7zm8 0c-2.1 0-3.6 3.3-3.6 7.7 0 2 .3 3.7.9 5 .6 1.5 1.5 2.5 2.5 2.6.1-.2.2-.5.2-.8v-.2c-.6-.1-1.1-.7-1.6-1.7-.5-1.2-.9-2.9-.9-4.9 0-3.9 1.3-6.6 2.5-6.6s2.6 2.7 2.6 6.6h1c0-4.4-1.5-7.7-3.6-7.7zm8-.1c-2.1 0-3.6 3.3-3.6 7.7 0 2 .3 3.7.9 5 .6 1.5 1.5 2.4 2.5 2.6.1-.2.2-.5.2-.8v-.2c-.6-.1-1.1-.7-1.6-1.7-.5-1.2-.9-2.9-.9-4.9 0-3.9 1.3-6.6 2.5-6.6s2.6 2.7 2.6 6.6h1c.1-4.4-1.5-7.7-3.6-7.7zm8.1 0c-2.1 0-3.6 3.3-3.6 7.7 0 2 .3 3.7.9 5 .6 1.5 1.5 2.4 2.5 2.6.1-.2.2-.5.2-.8v-.2c-.5-.1-1.1-.7-1.6-1.7-.5-1.2-.9-2.9-.9-4.9 0-3.9 1.3-6.6 2.5-6.6s2.6 2.7 2.6 6.6h1c0-4.4-1.6-7.7-3.6-7.7zm8 0c-2.1 0-3.6 3.3-3.6 7.7 0 2 .3 3.7.9 5 .6 1.5 1.5 2.4 2.5 2.6.1-.2.2-.5.2-.8v-.2c-.5-.1-1.1-.7-1.6-1.7-.5-1.2-.9-2.9-.9-4.9 0-3.9 1.3-6.6 2.5-6.6s2.6 2.7 2.6 6.6h1c0-4.4-1.5-7.7-3.6-7.7zm8.1 0c-2.1 0-3.6 3.3-3.6 7.7 0 2 .3 3.7.9 5 .6 1.5 1.5 2.4 2.5 2.6.1-.2.2-.5.2-.8v-.2c-.5-.1-1.1-.7-1.5-1.7-.5-1.2-.9-2.9-.9-4.9 0-3.9 1.3-6.6 2.5-6.6s2.6 2.7 2.6 6.6h1c-.1-4.5-1.7-7.8-3.7-7.7zm8-.1c-2.1 0-3.6 3.3-3.6 7.7 0 2 .3 3.7.9 5 .6 1.5 1.5 2.4 2.5 2.6.1-.2.2-.5.2-.8v-.2c-.5-.1-1.1-.7-1.5-1.7-.5-1.2-.9-2.9-.9-4.9 0-3.9 1.3-6.6 2.5-6.6s2.6 2.7 2.6 6.6h1c-.1-4.4-1.6-7.7-3.7-7.7zm8 0c-2.1 0-3.6 3.3-3.6 7.7 0 2 .3 3.7.9 5 .6 1.5 1.5 2.4 2.5 2.6.1-.2.2-.5.2-.8v-.2c-.5-.1-1.1-.7-1.5-1.7-.5-1.2-.9-2.9-.9-4.9 0-3.9 1.3-6.6 2.5-6.6s2.6 2.7 2.6 6.6h1c0-4.4-1.6-7.7-3.7-7.7zm8.1 0c-2.1 0-3.6 3.3-3.6 7.7 0 2 .3 3.7.9 5 .6 1.5 1.5 2.4 2.5 2.6.1-.2.2-.5.2-.8v-.2c-.5-.1-1.1-.7-1.5-1.7-.5-1.2-.9-2.9-.9-4.9 0-3.9 1.3-6.6 2.5-6.6s2.6 2.7 2.6 6.6h1c-.1-4.5-1.7-7.8-3.7-7.7zm8-.1c-2.1 0-3.6 3.3-3.6 7.7 0 2 .3 3.7.9 5 .6 1.5 1.4 2.4 2.4 2.6.1-.2.2-.5.2-.8v-.2c-.5-.1-1.1-.7-1.5-1.7-.5-1.2-.9-2.9-.9-4.9 0-3.9 1.3-6.6 2.5-6.6s2.6 2.7 2.6 6.6h1c0-4.4-1.5-7.7-3.6-7.7zm8 0c-2.1 0-3.6 3.3-3.6 7.7 0 2 .3 3.7.9 5 .6 1.5 1.4 2.4 2.4 2.6.1-.2.2-.5.2-.8v-.2c-.5-.1-1.1-.7-1.5-1.7-.5-1.2-.9-2.9-.9-4.9 0-3.9 1.3-6.6 2.5-6.6s2.6 2.7 2.6 6.6h1c.1-4.4-1.5-7.7-3.6-7.7zm8.1 0c-2.1 0-3.6 3.3-3.6 7.7 0 2 .3 3.7.9 5 .6 1.5 1.4 2.4 2.4 2.6.1-.2.2-.5.2-.8v-.2c-.5-.1-1.1-.7-1.5-1.6-.5-1.2-.9-2.9-.9-4.9 0-3.9 1.3-6.6 2.5-6.6s2.6 2.7 2.6 6.6h1c0-4.6-1.6-7.8-3.6-7.8zm8-.1c-2.1 0-3.6 3.3-3.6 7.7 0 2 .3 3.7.9 5 .6 1.5 1.4 2.4 2.4 2.6.1-.2.2-.5.2-.8v-.2c-.5-.1-1-.7-1.5-1.6-.5-1.2-.9-2.9-.9-4.9 0-3.9 1.3-6.6 2.5-6.6s2.6 2.7 2.6 6.6h1c0-4.5-1.5-7.8-3.6-7.8z" fill="#64798A"/><path d="M357.603 52.01l108-.42v.3l-108 .42zm0 8.201l108-.421v.3l-108 .421zm0 8.2l108-.42v.3l-108 .42zm.1 8.2l108-.421v.3l-108 .421zm0 8.2l108-.42v.3l-108 .42zm0 8.2l108-.42v.3l-108 .42zm.1 8.2l108-.42v.3l-108 .42zm0 8.2l108-.42v.3l-108 .42zm0 8.201l108-.422v.3l-108 .422zm.1 8.199l108-.42v.3l-108 .42zm0 8.201l108-.422v.3l-108 .422zm-.001 8.2l108-.421.002.3-108 .42zm.1 8.2l108-.422.002.3-108 .422zm0 8.2l108-.421.002.3-108 .42z" fill="#D5D6DB"/><path fill="#EFCAAB" d="M408.2 93.4l-1.9-1.8c-.2-.2-.3-.3-.5-.4l-7.9-3.5c-.1.5-.4 1-.8 1.4-.4.4-.9.7-1.4.8l3.5 7.9c.1.2.2.4.4.5l1.9 1.8 6.7-6.7z"/><path fill="#E56353" d="M450.8 149.1c.4.4 1 .4 1.4 0l5.3-5.4c.4-.4.4-1 0-1.4l-5.1-5.1-6.7 6.8 5.1 5.1z"/><path fill="#F6C358" d="M404.1 91.6c.6-.6 1.6-.6 2.3 0l46.1 45.7-2.2 2.3-46.1-45.7c-.7-.7-.7-1.7-.1-2.3z"/><path fill="#FCD462" d="M401.8 93.8c.6-.6 1.6-.6 2.3 0l46.1 45.7-2.2 2.3-46.1-45.7c-.7-.7-.7-1.7-.1-2.3z"/><path fill="#F6C358" d="M399.6 96.1c.6-.6 1.6-.6 2.3 0l46.1 45.7-2.2 2.3-46.1-45.7c-.7-.7-.7-1.7-.1-2.3z"/><path fill="#64798A" d="M397.9 87.7l-3-1.3c-.3-.1-.7.2-.5.5l1.4 3c.5-.1 1-.4 1.4-.8.3-.4.5-.9.7-1.4z"/><path fill="#3A556A" d="M53.8 253.3c-1.7.4-3.4.8-5.1 1.4-.8.3-1.1.5-2.8.5-1.7 0-2-.3-2.8-.5-1.7-.5-3.4-1-5.1-1.4-15.3-3.2-30.1.3-30.1.3v4.9s2.9.6 2.9 4.9c0 0 .6 12.4 8.6 13.8 0 0 15.5 4.6 20.9-8.3 0 0 1.5-8.7 5.4-8.7 4 0 5.4 8.7 5.4 8.7 5.5 12.9 20.9 8.3 20.9 8.3 8-1.4 8.6-13.8 8.6-13.8 0-4.3 2.9-4.9 2.9-4.9v-4.9c.4 0-14.3-3.4-29.7-.3z"/><path d="M30.6 253.8h-9.7c-4.2 0-7.6 3.4-7.6 7.6v5c0 5.4 4.4 9.8 9.8 9.8h4.1c7.1 0 12.8-5.7 12.8-12.8.1-5.3-4.2-9.6-9.4-9.6zm40.5 0h-9.7c-5.3 0-9.5 4.3-9.5 9.5 0 7.1 5.7 12.8 12.8 12.8h4.1c5.4 0 9.8-4.4 9.8-9.8v-5c0-4.1-3.4-7.5-7.5-7.5z" fill="#D5D6DB"/><path d="M17.8 263.3c-.2 0-.4-.1-.5-.2-.3-.3-.3-.8 0-1.1l3.6-3.6c.3-.3.8-.3 1.1 0 .3.3.3.8 0 1.1l-3.6 3.6c-.2.1-.4.2-.6.2zm1.5 4.5c-.2 0-.4-.1-.5-.2-.3-.3-.3-.8 0-1.1l2.2-2.2c.3-.3.8-.3 1.1 0 .3.3.3.8 0 1.1l-2.2 2.2c-.2.2-.4.2-.6.2zm4.4-4.4c-.2 0-.4-.1-.5-.2-.3-.3-.3-.8 0-1.1l3.7-3.7c.3-.3.8-.3 1.1 0 .3.3.3.8 0 1.1l-3.7 3.7c-.2.2-.4.2-.6.2zm50.5-.1c.2 0 .4-.1.5-.2.3-.3.3-.8 0-1.1l-3.6-3.6c-.3-.3-.8-.3-1.1 0-.3.3-.3.8 0 1.1l3.6 3.6c.2.1.4.2.6.2zm-1.5 4.5c.2 0 .4-.1.5-.2.3-.3.3-.8 0-1.1l-2.2-2.2c-.3-.3-.8-.3-1.1 0-.3.3-.3.8 0 1.1l2.2 2.2c.2.2.4.2.6.2zm-4.4-4.4c.2 0 .4-.1.5-.2.3-.3.3-.8 0-1.1l-3.7-3.7c-.3-.3-.8-.3-1.1 0-.3.3-.3.8 0 1.1l3.7 3.7c.2.2.4.2.6.2z" fill="#EBF0F3"/><path fill="#FC6E51" d="M199.6 87H64.9c-2.5 0-4.5 2-4.5 4.5s2 4.5 4.5 4.5h134.7c2.5 0 4.5-2 4.5-4.5s-2-4.5-4.5-4.5z"/><path fill="#AC92EB" d="M64.9 113.9h71.9c2.5 0 4.5-2 4.5-4.5s-2-4.5-4.5-4.5H64.9c-2.5 0-4.5 2-4.5 4.5s2 4.5 4.5 4.5z"/><path fill="#48CFAD" d="M64.9 131.9h98.8c2.5 0 4.5-2 4.5-4.5s-2-4.5-4.5-4.5H64.9c-2.5 0-4.5 2-4.5 4.5s2 4.5 4.5 4.5z"/><path fill="#5D9CEC" d="M64.9 149.8h62.9c2.5 0 4.5-2 4.5-4.5s-2-4.5-4.5-4.5H64.9c-2.5 0-4.5 2-4.5 4.5s2 4.5 4.5 4.5z"/><path fill="#FFCE54" d="M181.6 158.8H64.9c-2.5 0-4.5 2-4.5 4.5s2 4.5 4.5 4.5h116.8c2.5 0 4.5-2 4.5-4.5-.1-2.5-2.1-4.5-4.6-4.5z"/><path fill="#ED5564" d="M100.8 176.8H64.9c-2.5 0-4.5 2-4.5 4.5s2 4.5 4.5 4.5h35.9c2.5 0 4.5-2 4.5-4.5s-2-4.5-4.5-4.5z"/><g><path fill="#A4A9AD" d="M446.6 254.6h1v3.6h-1zm4.3-15.9h2.2v7h-2.2z"/><path fill="#333E48" d="M451.5 245.1c-.1 0-.1-.1-.1-.1v-1.4c0-.1.1-.1.1-.1.1 0 .1.1.1.1v1.4l-.1.1zm0 0"/><path fill="#C3C6C8" d="M453.1 238.7c0-.4.3-.7.7-.7.2 0 .5.1.6.3.3.6 1.1 1 1.9 1 .9 0 2.8-.8 2.8-5 0-4.1-2.1-5-3-5-2.2 0-5.1 2.5-5.1 6.1v3.1h2.1zm0 0"/><path fill="#333E48" d="M456.3 233.3c0-.5.4-1 1-1 .5 0 1 .4 1 1v2.2c0 .5-.4 1-1 1-.5 0-1-.4-1-1v-2.2zm0 0"/><path fill="#C3C6C8" d="M451.2 245.7h1.6v2h-1.6z"/><path fill="#A4A9AD" d="M441 238.7h2.2v7H441z"/><path fill="#333E48" d="M442.7 245.1c.1 0 .1-.1.1-.1v-1.4c0-.1-.1-.1-.1-.1-.1 0-.1.1-.1.1v1.4c-.1 0 0 .1.1.1zm0 0"/><path fill="#C3C6C8" d="M441 238.7c0-.4-.3-.7-.7-.7-.2 0-.5.1-.6.3-.3.6-1.1 1-1.9 1-.9 0-2.8-.8-2.8-5 0-4.1 2.1-5 3-5 2.2 0 5.1 2.5 5.1 6.1v3.1H441zm0 0"/><path fill="#333E48" d="M437.8 233.3c0-.5-.4-1-1-1-.5 0-1 .4-1 1v2.2c0 .5.4 1 1 1 .5 0 1-.4 1-1v-2.2zm0 0"/><path fill="#C3C6C8" d="M441.3 245.7h1.6v2h-1.6z"/><path fill="#A4A9AD" d="M448.1 253.1h-1v-1c0-.9.8-1.7 1.7-1.7h.7c1.1 0 2-.9 2-2v-.8h1v.8c0 1.6-1.3 3-3 3h-.7c-.4 0-.8.3-.8.8v.9zm-1.1 0h-1v-1c0-.4-.3-.8-.8-.8h-.7c-1.6 0-3-1.3-3-3v-.8h1v.8c0 1.1.9 2 2 2h.7c.9 0 1.7.8 1.7 1.7v1.1zm0 0"/><path fill="#C3C6C8" d="M448.3 254.3c0 .7-.6 1.3-1.3 1.3-.7 0-1.3-.6-1.3-1.3v-1.2h2.5v1.2zm0 0"/></g><g><path fill="#FCD462" d="M216.6 214.3l41.6-6.1c0 .6 0 1.7.3 3.2.9 11 3.1 18.2 6.8 29.1l-41.2 9c-6.3-19.3-6-25.9-7.3-31.6 0-1.7-.2-2.9-.2-3.6z"/></g><g enable-background="new" fill="#333"><path d="M230.4 220.2c.3-.2.6-.3.9-.3h.3c.4 0 .8 0 1.1.2.3.1.5.3.4.6 0 .1-.1.2-.1.2h-1.5c-.5.1-.9.4-1.1 1-.2.5-.2 1.2 0 1.9.2.5.3.9.4 1.2.1.2.3.4.5.6.3.2.6.3.9.3.2 0 .4 0 .5-.1l.4-.4c.4-.4.6-.6.8-.4.1 0 .1.1.1.2s0 .3-.2.6c-.3.6-.7 1-1.3 1.1-.5.1-1.1 0-1.7-.4-.4-.3-.7-.6-.9-1-.2-.4-.4-.9-.5-1.6 0-.1-.1-.2-.1-.3-.1-.3-.1-.5-.1-.7 0-.2 0-.4.1-.7.1-.4.2-.7.4-.9.2-.7.4-.9.7-1.1zm4.9 1.3l.4-.4h.6c.6 0 1.1.1 1.5.5.3.3.5.7.6 1.1v.2c.1.6 0 1.1-.3 1.5-.2.3-.5.5-.8.7-.2.1-.4.1-.6.2h-.5c-.6 0-1-.3-1.3-.7-.2-.2-.3-.5-.3-.8 0-.2-.1-.5 0-.8 0-.6.3-1.1.7-1.5zm1.2 2.8c.3-.1.6-.2.7-.3.2-.1.2-.4.2-.7v-.4c0-.1-.1-.3-.1-.4-.1-.3-.3-.5-.5-.5-.2-.1-.4-.1-.5-.1h-.1c-.2.1-.4.2-.5.5-.2.5-.3.9-.2 1.2 0 .1 0 .2.1.2.1.2.2.4.4.5 0 0 .2.1.5 0zm3.5-3.7l.4-.4s.1 0 .2-.1h.4c.6 0 1.1.1 1.5.5.3.3.5.7.6 1.1v.2c.1.6 0 1.1-.3 1.5-.2.3-.5.5-.8.7-.2.1-.4.1-.6.2h-.5c-.6 0-1-.3-1.3-.7-.2-.2-.3-.5-.3-.8 0-.2-.1-.5 0-.8-.1-.5.2-1 .7-1.4zm1.2 2.8c.3-.1.6-.2.7-.3.2-.2.2-.4.2-.7v-.4c0-.1-.1-.3-.1-.4-.1-.3-.3-.5-.5-.5-.2-.1-.4-.1-.5-.1h-.1c-.2.1-.4.2-.5.5-.2.5-.3.9-.2 1.2 0 .1 0 .2.1.2.1.2.2.4.4.5h.5zm2.2-5.2c0-.1.1-.2.2-.2s.2 0 .3.1c.1.1.3.8.6 2.2.2.8.3 1.3.4 1.6.1.3.2.5.3.7.1.1.3.2.4.2.2 0 .3.1.3.3v.1c0 .1 0 .2-.1.3-.1.1-.2.2-.3.2-.1 0-.3 0-.5-.1-.4-.1-.7-.4-.9-.8-.1-.2-.2-.6-.4-1.4-.1-.3-.1-.6-.2-1 0-1.3-.1-2-.1-2.2z"/></g><g enable-background="new" fill="#333"><path d="M234 237c-.1-.3-.2-.5-.4-.7-.2-.2-.6-.4-1.2-.7-.6-.3-1-.6-1.2-.8-.2-.2-.4-.5-.6-.8-.3-.6-.2-1.3.2-1.9.1-.2.3-.4.5-.5.1-.1.3-.2.5-.2h.2c.5-.1.9 0 1.3.2.8.5 1.2.8 1.1 1.1-.2.4-.6.4-1.3 0-.4-.2-.7-.3-.9-.3-.2.1-.4.2-.5.5-.1.2-.1.5 0 .7.1.3.5.6 1.2.9.9.5 1.6.9 1.9 1.3.2.2.3.5.4.8 0 .2.1.4 0 .7 0 .3-.1.5-.2.7-.1.2-.2.4-.5.6-.3.3-.7.4-1.1.5-.2 0-.4.1-.6 0-.7 0-1.2-.2-1.6-.6-.2-.3-.4-.5-.4-.7v-.3c.1-.2.4-.1.9.2.3.2.6.3 1 .3.3.1.7-.1 1.1-.3.2-.2.3-.3.3-.4-.1.1-.1-.1-.1-.3zm1.8-4.8l.2-.2c.3-.1.6.7.7 2.2h.4c.2 0 .4-.1.5-.1h.9c.1 0 .2 0 .2.1.1.1.1.1.1.2s0 .2-.1.3c-.2.1-.5.3-.9.4-.2 0-.5.1-.8.2.2.5.4.9.6 1.3.1.1.2.2.3.2.1 0 .3 0 .6-.1.2 0 .3-.1.4-.1h.2l.1.1c.1.2 0 .3-.1.6-.2.2-.3.4-.6.5-.1 0-.2.1-.3.1-.3.1-.6 0-.9-.2-.4-.2-.7-.7-1-1.3-.2-.5-.4-1-.5-1.6-.1-.3-.1-.6-.1-.9-.2-.8-.1-1.5.1-1.7zm4.1 2.3c-.1-.6-.2-1-.2-1.3 0-.2.1-.4.2-.5.1 0 .2-.1.2 0 .1 0 .1.1.2.2s.2.3.2.5c.1.2.1.5.2.8.4 1.7.9 2.5 1.3 2.4.1 0 .2-.1.3-.2.2-.2.3-.4.5-.7.1-.2.1-.4.1-.7 0-.2-.1-.7-.3-1.3-.2-1-.3-1.6-.3-1.7l.2-.2c.1 0 .3 0 .5.2s.4.7.6 1.6c0 .2.1.4.1.5.1.6.2 1.1.1 1.5-.1.6-.4 1.1-.8 1.5-.3.3-.6.4-.9.5h-.5c-.5-.1-.9-.3-1.2-.8 0-.6-.3-1.3-.5-2.3zm7-5c-.4.1-.6.2-.8.3-.1.2-.2.4-.2.7 0 .5 0 .8.1.8.1.1.2.1.6 0 .4-.1.6 0 .7.1.1.2.2.4 0 .5-.1.2-.4.3-.7.4-.1 0-.3.1-.5.1 0 .2.1.7.3 1.4.2.9.2 1.5.1 1.6-.1.1-.1.2-.2.2h-.2c-.2 0-.3-.2-.4-.4-.1-.2-.2-.6-.3-1.3-.1-.6-.2-.9-.2-1.1l-.3-.3c-.2-.1-.3-.1-.3-.3 0-.1 0-.2.1-.4.1-.1.2-.5.2-1.1 0-.5 0-.9.1-1.1.1-.2.2-.5.4-.7.2-.2.5-.3.8-.4.3-.1.6-.1.9 0 .2.1.3.2.3.3v.1c.1.4-.1.5-.5.6zm4.4-.9c-.4.1-.6.2-.8.3-.1.2-.2.4-.2.7 0 .5 0 .8.1.8s.2.1.6 0c.4-.1.6 0 .7.1.1.2.2.4 0 .5-.1.2-.4.3-.7.4-.1 0-.3.1-.5.1 0 .2.1.7.3 1.4.2.9.2 1.5.1 1.6-.1.1-.1.2-.2.2h-.2c-.2-.1-.3-.2-.4-.4-.1-.2-.2-.6-.3-1.3-.1-.6-.2-.9-.2-1.1l-.3-.3c-.2-.1-.3-.1-.3-.3 0-.1 0-.2.1-.4.1-.1.2-.5.2-1.1 0-.5 0-.9.1-1.1.1-.2.2-.5.4-.7.2-.2.5-.3.8-.4.3-.1.6-.1.9 0 .2.1.3.2.3.3v.1c.2.4-.1.5-.5.6z"/></g><g><g opacity=".11" transform="translate(37 337)"><path d="M239.8-61.7c-.5.4-1.4.9-2.1.9l-47 5.5-.7-5.9 47-5.5c.6-.1 1.6.1 2.2.5l.6.4c.1.1.3.3.3.4l.3 2.7c0 .2-.1.4-.2.5l-.4.5z"/><defs><filter id="a" filterUnits="userSpaceOnUse" x="203.5" y="-63.6" width="23.6" height="5"><feColorMatrix values="1 0 0 0 0 0 1 0 0 0 0 0 1 0 0 0 0 0 1 0"/></filter></defs><mask maskUnits="userSpaceOnUse" x="203.5" y="-63.6" width="23.6" height="5" id="b"><path fill="#FFF" d="M239.8-61.7c-.5.4-1.4.9-2.1.9l-47 5.5-.7-5.9 47-5.5c.6-.1 1.6.1 2.2.5l.6.4c.1.1.3.3.3.4l.3 2.7c0 .2-.1.4-.2.5l-.4.5z" filter="url(#a)"/></mask><path mask="url(#b)" d="M227-63.1l.1 1.2c0 .3-.2.6-.5.7l-22.3 2.6c-.3 0-.6-.2-.7-.5l-.1-1.2c0-.3.2-.6.5-.7l22.3-2.6c.4-.1.7.1.7.5z"/><path opacity=".1" enable-background="new" d="M190.386-58.27l49.958-5.834.348 2.98-49.958 5.834z"/><path d="M165.3-58.9c-.1-.6.4-1.2 1-1.3l20-2.3c.3 0 .6.2.7.5 0 .3-.2.6-.5.7l-18.3 2.1c-.3 0-.6.3-.5.7l1.8-.3c.3 0 20.6-2.4 20.6-2.4l.7 5.9-20.6 2.4c-5.9.7-9-.1-9-.7-.1-.6-.2-1.8-.3-2.4-.1-.4 1.4-1.4 4.5-2.1l-.1-.8z"/><path opacity=".1" enable-background="new" d="M190.7-55.3l-.3-2.9-29.4 3.4.1 1.2c.1.6 3.1 1.4 9 .7l10.3-1.2 10.3-1.2z"/></g><g transform="translate(37 343)"><path fill="#E9EBF0" d="M239.8-70.7c-.5.4-1.4.9-2.1.9l-47 5.5-.7-5.9 47-5.5c.6-.1 1.6.1 2.2.5l.6.4c.1.1.3.3.3.4l.3 2.7c0 .2-.1.4-.2.5l-.4.5z"/><defs><filter id="c" filterUnits="userSpaceOnUse" x="203.5" y="-72.6" width="23.6" height="5"><feColorMatrix values="1 0 0 0 0 0 1 0 0 0 0 0 1 0 0 0 0 0 1 0"/></filter></defs><mask maskUnits="userSpaceOnUse" x="203.5" y="-72.6" width="23.6" height="5" id="d"><path fill="#FFF" d="M239.8-70.7c-.5.4-1.4.9-2.1.9l-47 5.5-.7-5.9 47-5.5c.6-.1 1.6.1 2.2.5l.6.4c.1.1.3.3.3.4l.3 2.7c0 .2-.1.4-.2.5l-.4.5z" filter="url(#c)"/></mask><path mask="url(#d)" fill="#C5C8D7" d="M227-72.1l.1 1.2c0 .3-.2.6-.5.7l-22.3 2.6c-.3 0-.6-.2-.7-.5l-.1-1.2c0-.3.2-.6.5-.7l22.3-2.6c.4-.1.7.1.7.5z"/><defs><filter id="e" filterUnits="userSpaceOnUse" x="190.4" y="-73.1" width="50.3" height="8.8"><feColorMatrix values="1 0 0 0 0 0 1 0 0 0 0 0 1 0 0 0 0 0 1 0"/></filter></defs><mask maskUnits="userSpaceOnUse" x="190.4" y="-73.1" width="50.3" height="8.8" id="f"><path fill="#FFF" d="M239.8-70.7c-.5.4-1.4.9-2.1.9l-47 5.5-.7-5.9 47-5.5c.6-.1 1.6.1 2.2.5l.6.4c.1.1.3.3.3.4l.3 2.7c0 .2-.1.4-.2.5l-.4.5z" filter="url(#e)"/></mask><path transform="rotate(-6.662 215.552 -68.697)" opacity=".1" fill="#40445E" enable-background="new" d="M190.4-70.2h50.3v3h-50.3z" mask="url(#f)"/></g><path fill="#40445E" d="M202.3 275.1c-.1-.6.4-1.2 1-1.3l20-2.3c.3 0 .6.2.7.5 0 .3-.2.6-.5.7l-18.3 2.1c-.3 0-.6.3-.5.7l1.8-.3c.3 0 20.6-2.4 20.6-2.4l.7 5.9-20.6 2.4c-5.9.7-9-.1-9-.7-.1-.6-.2-1.8-.3-2.4-.1-.4 1.4-1.4 4.5-2.1l-.1-.8z"/><path opacity=".1" enable-background="new" d="M227.7 278.7l-.3-2.9-29.4 3.4.1 1.2c.1.6 3.1 1.4 9 .7l10.3-1.2 10.3-1.2z"/></g></svg>