<?xml version="1.0" standalone="no"?>
<!DOCTYPE svg PUBLIC "-//W3C//DTD SVG 20010904//EN"
 "http://www.w3.org/TR/2001/REC-SVG-20010904/DTD/svg10.dtd">
<svg version="1.0" xmlns="http://www.w3.org/2000/svg"
 width="337.000000pt" height="337.000000pt" viewBox="0 0 337.000000 337.000000"
 preserveAspectRatio="xMidYMid meet">
<metadata>
Created by potrace 1.11, written by Peter Selinger 2001-2013
</metadata>
<g transform="translate(0.000000,337.000000) scale(0.100000,-0.100000)"
fill="#000000" stroke="none">
<path d="M682 3161 c-11 -7 -38 -79 -164 -441 l-51 -146 61 -169 c33 -94 100
-278 147 -410 48 -132 107 -295 131 -362 l44 -123 -379 0 -379 0 -12 -32 c-25
-68 -70 -202 -70 -208 0 -3 211 -5 470 -5 l470 0 11 -30 c11 -31 84 -237 188
-535 61 -172 62 -174 43 -199 -20 -27 -16 -26 -127 -35 -44 -4 -98 -9 -120
-12 l-40 -6 2 -100 c1 -55 4 -102 6 -105 4 -4 1041 -7 1148 -4 14 1 16 16 16
106 -1 118 6 108 -82 120 -36 5 -57 8 -120 20 -11 2 -27 4 -36 4 -11 1 -28 34
-54 104 -40 109 -254 685 -337 906 -27 73 -53 143 -58 155 -5 11 -93 248 -195
526 -102 278 -190 514 -195 525 -5 11 -45 120 -90 242 l-82 222 -67 0 c-36 0
-72 -3 -79 -8z"/>
<path d="M1023 3127 c2 -7 21 -59 42 -117 21 -58 41 -108 44 -112 3 -4 132 -8
286 -9 315 -2 388 -8 495 -45 92 -32 162 -76 219 -138 42 -47 93 -142 105
-201 3 -16 9 -41 12 -55 7 -34 7 -197 -1 -240 -35 -211 -143 -341 -337 -404
-86 -28 -118 -33 -253 -42 -55 -4 -101 -7 -101 -8 -4 -2 88 -242 95 -249 4 -4
19 -10 32 -12 55 -11 66 -14 109 -31 181 -71 257 -185 392 -584 109 -323 161
-410 329 -545 53 -43 175 -96 254 -110 17 -2 41 -7 55 -10 61 -13 313 -7 440
10 14 2 48 6 76 10 l51 6 0 105 0 104 -61 1 c-204 2 -308 34 -395 120 -57 57
-109 170 -171 369 -62 202 -81 252 -126 345 -85 173 -220 287 -412 345 -77 23
-94 35 -58 38 43 3 197 52 271 87 203 93 328 224 390 406 38 113 44 312 14
429 -75 292 -296 462 -684 526 -130 22 -1120 31 -1112 11z"/>
</g>
</svg>
