<svg width="686" height="400" xmlns="http://www.w3.org/2000/svg" viewBox="0 0 686 400"><title>banner</title><path fill="none" stroke="#A4A9AD" stroke-width="1.7" stroke-miterlimit="10" d="M613 366.4c-14.4-.7-37.7 7.8-51.3.1-5.2-3-9.9-7-15.4-9.4-8.6-3.7-18.4-3.2-27.6-1.5-9.2 1.7-18.2 5.6-27.5 5.5-48.5-.9-50.2-27.6-50.2-49.8"/><path fill="#40596B" d="M499.5 77.4h-311c-7.7 0-13.9 6.2-13.9 13.9v190.9h338.8V91.3c0-7.7-6.2-13.9-13.9-13.9z"/><path fill="#F2F2F2" d="M174.6 282.8v23.5c0 7.7 6.2 13.9 13.9 13.9h314.6c5.7 0 10.3-4.6 10.3-10.3v-27.1H174.6z"/><g fill="#CDD6E0"><circle cx="344.2" cy="301.2" r="7.4"/><path d="M410.6 347.5H277.9l12.7-17.7 5-9.6h97.3l5 9.6z"/></g><path fill="#F2F2F2" d="M446.7 367.5H241.3v-18.1c0-1 .8-1.9 1.9-1.9h201.7c1 0 1.9.8 1.9 1.9l-.1 18.1z"/><path fill="#656D78" d="M195.3 97.4h297.4v170.1H195.3z"/><path fill="none" d="M398.4 330.2H290.1"/><path fill="#EBF0F3" d="M86.6 54.3l130.8-9.9-43.4 69.7z"/><path fill="#E1E6E9" d="M217.4 44.4l-95 34.4 15.8 10.8z"/><path fill="#D5D6DB" d="M114.7 109.9l7.7-31.1 15.8 10.8z"/><path fill="#E1E6E9" d="M114.7 109.9l33.7-13.3-10.2-7"/><path fill="#3A556A" d="M105.8 338.9c-2.4.5-4.8 1.2-7.2 1.9-1.1.4-1.5.8-3.9.8s-2.8-.4-3.9-.8c-2.4-.7-4.8-1.4-7.2-1.9-21.6-4.4-42.4.4-42.4.4v6.9s4 .8 4.1 6.9c0 0 .9 17.5 12.2 19.5 0 0 21.8 6.5 29.5-11.7 0 0 2.1-12.3 7.6-12.3 5.6 0 7.6 12.3 7.6 12.3 7.7 18.2 29.5 11.7 29.5 11.7 11.3-1.9 12.2-19.5 12.2-19.5.1-6.1 4.1-6.9 4.1-6.9v-6.9c.2 0-20.6-4.8-42.2-.4z"/><path d="M73 339.6H59.3c-5.9 0-10.7 4.8-10.7 10.7v7c0 7.6 6.2 13.8 13.8 13.8h5.8c10 0 18.1-8.1 18.1-18.1.1-7.4-5.9-13.4-13.3-13.4zm57.1 0h-13.6c-7.4 0-13.4 6-13.4 13.4 0 10 8.1 18.1 18.1 18.1h5.8c7.6 0 13.8-6.2 13.8-13.8v-7c0-5.9-4.8-10.7-10.7-10.7z" fill="#D5D6DB"/><path d="M54.9 353c-.3 0-.5-.1-.8-.3-.4-.4-.4-1.1 0-1.5l5.1-5.1c.4-.4 1.1-.4 1.5 0s.4 1.1 0 1.5l-5.1 5.1c-.1.2-.4.3-.7.3zm2.2 6.4c-.3 0-.5-.1-.8-.3-.4-.4-.4-1.1 0-1.5l3.2-3.2c.4-.4 1.1-.4 1.5 0s.4 1.1 0 1.5l-3.2 3.2c-.2.2-.4.3-.7.3zm6.2-6.2c-.3 0-.5-.1-.8-.3-.4-.4-.4-1.1 0-1.5l5.2-5.2c.4-.4 1.1-.4 1.5 0s.4 1.1 0 1.5l-5.2 5.2c-.1.1-.4.3-.7.3zm71.2-.2c.3 0 .5-.1.8-.3.4-.4.4-1.1 0-1.5l-5.1-5.1c-.4-.4-1.1-.4-1.5 0s-.4 1.1 0 1.5l5.1 5.1c.2.2.4.3.7.3zm-2.1 6.4c.3 0 .5-.1.8-.3.4-.4.4-1.1 0-1.5l-3.2-3.2c-.4-.4-1.1-.4-1.5 0s-.4 1.1 0 1.5l3.2 3.2c.1.2.4.3.7.3zm-6.3-6.2c.3 0 .5-.1.8-.3.4-.4.4-1.1 0-1.5l-5.2-5.2c-.4-.4-1.1-.4-1.5 0s-.4 1.1 0 1.5l5.2 5.2c.2.1.5.3.7.3z" fill="#EBF0F3"/><path fill="#FC6E51" d="M411.1 115.4H221c-3.5 0-6.3 2.8-6.3 6.3s2.8 6.3 6.3 6.3h190.1c3.5 0 6.3-2.8 6.3-6.3s-2.8-6.3-6.3-6.3z"/><path fill="#AC92EB" d="M221 153.4h101.4c3.5 0 6.3-2.8 6.3-6.3s-2.8-6.3-6.3-6.3H221c-3.5 0-6.3 2.8-6.3 6.3-.1 3.5 2.8 6.3 6.3 6.3z"/><path fill="#48CFAD" d="M221 178.8h139.4c3.5 0 6.3-2.8 6.3-6.3s-2.8-6.3-6.3-6.3H221c-3.5 0-6.3 2.8-6.3 6.3-.1 3.4 2.8 6.3 6.3 6.3z"/><path fill="#5D9CEC" d="M221 204.1h88.7c3.5 0 6.3-2.8 6.3-6.3s-2.8-6.3-6.3-6.3H221c-3.5 0-6.3 2.8-6.3 6.3-.1 3.5 2.8 6.3 6.3 6.3z"/><path fill="#FFCE54" d="M385.7 216.8H221c-3.5 0-6.3 2.8-6.3 6.3s2.8 6.3 6.3 6.3h164.7c3.5 0 6.3-2.8 6.3-6.3.1-3.5-2.8-6.3-6.3-6.3z"/><path fill="#ED5564" d="M271.7 242.1H221c-3.5 0-6.3 2.8-6.3 6.3s2.8 6.3 6.3 6.3h50.7c3.5 0 6.3-2.8 6.3-6.3 0-3.4-2.8-6.3-6.3-6.3z"/><g><path fill="#A4A9AD" d="M610.8 364.5h6.2v1.6h-6.2zm21.6 7.5h12v3.8h-12z"/><path fill="#333E48" d="M633.4 373c0-.1.1-.2.2-.2h2.4c.1 0 .2.1.2.2s-.1.2-.2.2h-2.4c-.1 0-.2-.1-.2-.2z"/><path fill="#C3C6C8" d="M644.4 375.8c.6 0 1.1.5 1.1 1.1 0 .4-.2.8-.6 1-1 .6-1.7 2-1.7 3.2 0 1.6 1.4 4.8 8.6 4.8 7.1 0 8.6-3.6 8.6-5.2 0-3.8-4.3-8.8-10.6-8.8h-5.4v3.9z"/><path fill="#333E48" d="M653.7 381.3c.9 0 1.6.7 1.6 1.6s-.7 1.6-1.6 1.6H650c-.9 0-1.6-.7-1.6-1.6s.7-1.6 1.6-1.6h3.7z"/><path fill="#C3C6C8" d="M629 372.5h3.4v2.7H629z"/><path fill="#A4A9AD" d="M632.4 355h12v3.8h-12z"/><path fill="#333E48" d="M633.4 357.8c0 .1.1.2.2.2h2.4c.1 0 .2-.1.2-.2s-.1-.2-.2-.2h-2.4c-.1 0-.2 0-.2.2z"/><path fill="#C3C6C8" d="M644.4 355c.6 0 1.1-.5 1.1-1.1 0-.4-.2-.8-.6-1-1-.6-1.7-2-1.7-3.2 0-1.6 1.4-4.8 8.6-4.8 7.1 0 8.6 3.6 8.6 5.2 0 3.8-4.3 8.8-10.6 8.8h-5.4V355z"/><path fill="#333E48" d="M653.7 349.5c.9 0 1.6-.7 1.6-1.6s-.7-1.6-1.6-1.6H650c-.9 0-1.6.7-1.6 1.6s.7 1.6 1.6 1.6h3.7z"/><path fill="#C3C6C8" d="M629 355.5h3.4v2.7H629z"/><path fill="#A4A9AD" d="M619.6 367.1v-1.6h1.7c1.6 0 3 1.3 3 3v1.2c0 1.9 1.5 3.4 3.4 3.4h1.3v1.6h-1.3c-2.8 0-5.1-2.3-5.1-5.1v-1.2c0-.7-.6-1.3-1.3-1.3h-1.7zm0-1.8v-1.6h1.7c.7 0 1.3-.6 1.3-1.3v-1.2c0-2.8 2.3-5.1 5.1-5.1h1.3v1.6h-1.3c-1.9 0-3.4 1.5-3.4 3.4v1.2c0 1.6-1.3 3-3 3h-1.7z"/><path fill="#C3C6C8" d="M617.5 367.5c-1.2 0-2.2-1-2.2-2.2s1-2.2 2.2-2.2h2.1v4.3h-2.1v.1z"/></g><g><path fill="#FCD462" d="M448.4 297.8l60.5-8.9c0 .9.1 2.5.5 4.7 1.3 16 4.5 26.4 9.9 42.2l-59.8 13c-9.1-28.1-8.7-37.6-10.6-45.8-.4-2.5-.5-4.3-.5-5.2z"/></g><g fill="#333"><path d="M466.2 306.7c.4-.2.8-.4 1.3-.5.1 0 .2 0 .4-.1.6 0 1.1 0 1.6.2s.7.5.6.8c0 .2-.1.2-.2.3-.1 0-.4 0-.8-.1-.5-.1-1 0-1.4 0-.8.2-1.3.6-1.6 1.4-.3.8-.3 1.7 0 2.8.2.8.4 1.3.6 1.7.2.3.4.6.8.9.4.3.9.4 1.3.4.3 0 .5 0 .7-.1.1-.1.4-.3.6-.6.5-.6.9-.8 1.2-.7.1 0 .1.1.2.2 0 .2-.1.5-.2.9-.4.9-1 1.4-1.8 1.6-.8.2-1.6-.1-2.5-.6-.6-.4-1-.8-1.3-1.4s-.6-1.4-.8-2.4c0-.1-.1-.3-.1-.4-.1-.4-.1-.7-.1-1 0-.3 0-.6.2-1 .2-.6.3-1 .5-1.3.1-.4.4-.7.8-1zm7.2 1.9c.2-.3.4-.4.6-.5.1 0 .2 0 .3-.1.1 0 .3 0 .5-.1.8-.1 1.6.2 2.1.8.4.4.7 1 .8 1.6v.3c.1.8 0 1.6-.4 2.1-.3.4-.7.7-1.2 1-.3.1-.5.2-.8.3-.3.1-.5.1-.8.1-.8-.1-1.4-.4-1.9-1-.2-.3-.4-.7-.5-1.1-.1-.3-.1-.7 0-1.1.2-.9.6-1.7 1.3-2.3zm1.7 4.1c.5-.1.8-.3 1-.5.2-.2.3-.5.4-.9v-.6c0-.2-.1-.4-.2-.6-.2-.4-.4-.7-.7-.8-.3-.1-.5-.2-.8-.1-.1 0-.1 0-.2.1-.3.1-.6.3-.7.7-.3.7-.4 1.3-.3 1.8 0 .1.1.2.1.3.1.3.3.6.5.7.2-.1.5 0 .9-.1zm5-5.5c.2-.3.4-.4.6-.5.1 0 .1 0 .3-.1.1 0 .3 0 .5-.1.8-.1 1.6.2 2.1.8.4.4.7 1 .8 1.6v.3c.1.8 0 1.6-.4 2.1-.3.4-.7.7-1.2 1-.3.1-.5.2-.8.3-.3.1-.5.1-.8.1-.8-.1-1.4-.4-1.9-1-.2-.3-.4-.7-.5-1.1-.1-.3-.1-.7 0-1.1.3-.9.7-1.6 1.3-2.3zm1.8 4.1c.5-.1.8-.3 1-.5.2-.2.3-.5.4-.9v-.6c0-.2-.1-.4-.2-.6-.2-.4-.4-.7-.7-.8-.3-.1-.5-.2-.8-.1-.1 0-.1 0-.2.1-.3.1-.6.3-.7.7-.3.7-.4 1.3-.3 1.8 0 .1.1.2.1.3.1.3.3.6.5.7.1 0 .4 0 .9-.1zm3.3-7.5c.1-.2.2-.3.3-.3.2 0 .3 0 .5.2.2.1.5 1.2.9 3.2.2 1.1.4 1.9.6 2.4.1.5.2.8.4 1 .2.2.4.3.6.3.2 0 .4.2.5.4v.1c0 .2 0 .3-.1.5s-.3.3-.5.3-.4 0-.7-.1c-.5-.2-1-.6-1.3-1.1-.1-.2-.3-.9-.5-2-.1-.4-.2-.9-.3-1.4-.4-2.1-.5-3.2-.4-3.5zm-15.4 24.9c.1.3.4.5 1 .8.6.2 1.1.6 1.8 1 .3.3.6.5.7.7.1.1.2.3.2.5v.3c.1 1-.5 1.6-1.8 1.9h-.1c-.9.2-1.5.1-2.1-.1-.3-.2-.5-.4-.6-.6v-.5c.1-.2.5-.2 1.2-.2.6 0 1 0 1.3-.1.3-.1.4-.2.4-.4 0-.1-.9-.7-2.7-1.6-.6-.3-.9-.9-1-1.6 0-.8.2-1.4.7-1.9.4-.3.8-.5 1.2-.6h.1c.5-.1.9 0 1.2.2.3.3.5.5.4.7-.1.2-.3.3-.8.3s-.8.1-1.1.4c.1.2 0 .5 0 .8zm4.5-4.6c.1-.1.2-.2.3-.2.5-.1.8 1 1 3.2.1 0 .3 0 .6-.1s.5-.1.8-.1c.2 0 .5-.1.7-.1h.6c.2 0 .3.1.3.2.1.1.1.2.2.2 0 .1 0 .3-.2.4-.2.2-.7.4-1.3.6-.3.1-.7.2-1.2.3.2.7.5 1.4.9 1.9l.4.4c.1 0 .4 0 .9-.1.3-.1.5-.1.6-.1h.3c.1 0 .1.1.2.2.1.2 0 .5-.2.8-.2.3-.5.6-.8.7-.2.1-.3.1-.5.1-.5.1-.9 0-1.3-.2-.5-.3-1-1-1.5-1.9-.3-.7-.6-1.5-.7-2.4-.1-.4-.1-.8-.2-1.2-.3-1.4-.2-2.3.1-2.6zm6 3.3c-.2-.9-.3-1.5-.3-1.9 0-.4.1-.6.3-.7.1-.1.2-.1.4-.1.1 0 .2.1.3.3.1.2.2.4.3.7.1.3.2.7.3 1.2.6 2.5 1.3 3.6 1.9 3.5.2 0 .3-.1.5-.3.3-.2.5-.6.7-1 .1-.3.2-.6.1-1 0-.3-.2-1-.4-2-.3-1.5-.5-2.3-.4-2.5.1-.1.2-.2.3-.2.2 0 .4 0 .7.2.3.2.6 1 .9 2.3.1.3.1.5.2.8.2.9.2 1.6.1 2.1-.2.9-.5 1.7-1.1 2.2-.4.4-.8.6-1.3.7h-.7c-.7-.1-1.3-.5-1.8-1.2-.4-.6-.7-1.7-1-3.1zm10.1-7.2c-.6.1-.9.3-1.1.5-.2.2-.3.6-.3 1 0 .7 0 1.1.1 1.2.1.1.4.1.8 0 .6-.1.9 0 1.1.2.2.3.2.5 0 .8-.2.3-.5.4-1 .5-.2 0-.4.1-.7.1.1.3.2 1 .4 2 .3 1.3.3 2.1.2 2.4l-.3.3h-.3c-.3-.1-.4-.3-.6-.5-.1-.3-.3-.9-.5-1.9-.2-.8-.3-1.3-.4-1.5-.1-.2-.2-.4-.4-.4-.2-.1-.4-.2-.4-.4s0-.4.2-.6c.2-.2.3-.7.3-1.6 0-.7 0-1.3.1-1.6.1-.3.3-.7.6-1 .3-.3.7-.5 1.2-.6h.1c.5-.1.9-.1 1.3 0 .3.1.5.2.5.4v.2c0 .2-.3.3-.9.5zm6.5-1.3c-.6.1-.9.3-1.1.5-.2.2-.3.6-.3 1 0 .7 0 1.1.1 1.2.1.1.4.1.8 0 .6-.1.9 0 1.1.2.2.3.2.5 0 .8-.2.3-.5.4-1 .5-.1 0-.4.1-.7.1.1.3.2 1 .4 2 .3 1.3.3 2.1.2 2.4l-.3.3h-.3c-.3-.1-.4-.3-.6-.5-.1-.3-.3-.9-.5-1.9-.2-.8-.3-1.3-.4-1.5-.1-.2-.2-.4-.4-.4-.2-.1-.4-.2-.4-.4s0-.4.2-.6c.2-.2.3-.7.3-1.6 0-.7 0-1.3.1-1.6.1-.3.3-.7.6-1 .3-.3.7-.5 1.2-.6h.1c.5-.1.9-.1 1.3 0 .3.1.5.2.5.4v.2c0 .2-.3.4-.9.5z"/></g><g><g opacity=".11" transform="translate(37 337)"><path d="M492.2 36.1c-.7.6-1.9 1.1-2.7 1.2l-62.7 7.3-.9-7.8 62.7-7.3c.9-.1 2.2.2 2.9.6l.9.5c.2.1.4.4.4.6l.4 3.6c0 .2-.1.5-.2.7l-.8.6z"/><defs><filter id="a" filterUnits="userSpaceOnUse" x="443.9" y="33.5" width="31.5" height="6.6"><feColorMatrix values="1 0 0 0 0 0 1 0 0 0 0 0 1 0 0 0 0 0 1 0"/></filter></defs><mask maskUnits="userSpaceOnUse" x="443.9" y="33.5" width="31.5" height="6.6" id="b"><path fill="#FFF" d="M492.2 36.1c-.7.6-1.9 1.1-2.7 1.2l-62.7 7.3-.9-7.8 62.7-7.3c.9-.1 2.2.2 2.9.6l.9.5c.2.1.4.4.4.6l.4 3.6c0 .2-.1.5-.2.7l-.8.6z" filter="url(#a)"/></mask><path mask="url(#b)" d="M475.2 34.2l.2 1.6c.1.4-.3.8-.7.9l-29.8 3.5c-.4.1-.8-.3-.9-.7l-.2-1.6c-.1-.4.3-.8.7-.9l29.8-3.5c.5 0 .9.3.9.7z"/><path opacity=".1" d="M426.274 40.718l66.644-7.783.452 3.873-66.643 7.784z"/><path d="M392.9 39.9c-.1-.9.5-1.6 1.4-1.8l26.6-3.1c.4-.1.8.3.9.7.1.4-.3.8-.7.9l-24.4 2.8c-.4.1-.7.4-.7.9v.1l2.4-.3c.4 0 27.4-3.2 27.4-3.2l.9 7.8-27.4 3.2c-7.8.9-11.9-.2-12-1-.1-.8-.3-2.4-.4-3.1-.1-.6 1.9-1.8 6-2.8v-1.1z"/><path opacity=".1" d="M426.8 44.6l-.5-3.9-39.2 4.6.2 1.6c.1.8 4.2 1.9 12 1l13.7-1.6 13.8-1.7z"/></g><g transform="translate(37 343)"><path fill="#E9EBF0" d="M492.2 27.1c-.7.6-1.9 1.1-2.7 1.2l-62.7 7.3-.9-7.8 62.7-7.3c.9-.1 2.2.2 2.9.6l.9.5c.2.1.4.4.4.6l.4 3.6c0 .2-.1.5-.2.7l-.8.6z"/><defs><filter id="c" filterUnits="userSpaceOnUse" x="443.9" y="24.5" width="31.5" height="6.6"><feColorMatrix values="1 0 0 0 0 0 1 0 0 0 0 0 1 0 0 0 0 0 1 0"/></filter></defs><mask maskUnits="userSpaceOnUse" x="443.9" y="24.5" width="31.5" height="6.6" id="d"><path fill="#FFF" d="M492.2 27.1c-.7.6-1.9 1.1-2.7 1.2l-62.7 7.3-.9-7.8 62.7-7.3c.9-.1 2.2.2 2.9.6l.9.5c.2.1.4.4.4.6l.4 3.6c0 .2-.1.5-.2.7l-.8.6z" filter="url(#c)"/></mask><path mask="url(#d)" fill="#C5C8D7" d="M475.2 25.2l.2 1.6c.1.4-.3.8-.7.9l-29.8 3.5c-.4.1-.8-.3-.9-.7l-.2-1.6c-.1-.4.3-.8.7-.9l29.8-3.5c.5 0 .9.3.9.7z"/><defs><filter id="e" filterUnits="userSpaceOnUse" x="426.3" y="23.9" width="67.1" height="11.7"><feColorMatrix values="1 0 0 0 0 0 1 0 0 0 0 0 1 0 0 0 0 0 1 0"/></filter></defs><mask maskUnits="userSpaceOnUse" x="426.3" y="23.9" width="67.1" height="11.7" id="f"><path fill="#FFF" d="M492.2 27.1c-.7.6-1.9 1.1-2.7 1.2l-62.7 7.3-.9-7.8 62.7-7.3c.9-.1 2.2.2 2.9.6l.9.5c.2.1.4.4.4.6l.4 3.6c0 .2-.1.5-.2.7l-.8.6z" filter="url(#e)"/></mask><path transform="rotate(-6.662 459.977 29.8)" opacity=".1" fill="#40445E" d="M426.3 27.8h67.1v3.9h-67.1z" mask="url(#f)"/></g><path fill="#40445E" d="M429.9 373.9c-.1-.9.5-1.6 1.4-1.8l26.6-3.1c.4-.1.8.3.9.7.1.4-.3.8-.7.9l-24.4 2.8c-.4.1-.7.4-.7.9v.1l2.4-.3c.4 0 27.4-3.2 27.4-3.2l.9 7.8-27.4 3.2c-7.8.9-11.9-.2-12-1-.1-.8-.3-2.4-.4-3.1-.1-.6 1.9-1.8 6-2.8v-1.1z"/><path opacity=".1" d="M463.8 378.6l-.5-3.9-39.2 4.6.2 1.6c.1.8 4.2 1.9 12 1l13.7-1.6 13.8-1.7z"/></g></svg>